HIERARCHY
ROOT Hips
{
	OFFSET 0.000000 83.214638 0.000000
	CHANNELS 6 Xposition Yposition Zposition Xrotation Yrotation Zrotation
	JOINT Pelvis
	{
		OFFSET 0.000000 0.000000 0.000000
		CHANNELS 3 Xrotation Yrotation Zrotation
		JOINT LeftUpLeg
		{
			OFFSET 8.479700 -4.795502 -0.379100
			CHANNELS 3 Xrotation Yrotation Zrotation
			JOINT LeftLeg
			{
				OFFSET 0.024144 -32.555107 0.112900
				CHANNELS 3 Xrotation Yrotation Zrotation
				JOINT LeftFoot
				{
					OFFSET -0.024144 -32.638630 -3.012600
					CHANNELS 3 Xrotation Yrotation Zrotation
					JOINT LeftToeBase
					{
						OFFSET 0.970200 -13.225400 11.864200
						CHANNELS 3 Xrotation Yrotation Zrotation
						End Site
						{
							OFFSET 0.000000 12.319262 0.000000
						}
					}
					JOINT LFootTongue
					{
						OFFSET 1.142400 -1.059800 6.665200
						CHANNELS 3 Xrotation Yrotation Zrotation
						End Site
						{
							OFFSET 0.000000 12.319262 0.000000
						}
					}
				}
				JOINT LeftPantLeg
				{
					OFFSET 0.918482 -16.533964 -2.284700
					CHANNELS 3 Xrotation Yrotation Zrotation
					End Site
					{
						OFFSET 0.350399 24.744368 0.000000
					}
				}
			}
		}
		JOINT RightUpLeg
		{
			OFFSET -8.479700 -4.795502 -0.379100
			CHANNELS 3 Xrotation Yrotation Zrotation
			JOINT RightLeg
			{
				OFFSET -0.023144 -32.555092 0.112900
				CHANNELS 3 Xrotation Yrotation Zrotation
				JOINT RightFoot
				{
					OFFSET 0.023144 -32.638641 -3.012700
					CHANNELS 3 Xrotation Yrotation Zrotation
					JOINT RightToeBase
					{
						OFFSET -0.970200 -13.225400 11.864200
						CHANNELS 3 Xrotation Yrotation Zrotation
						End Site
						{
							OFFSET 0.000000 12.319244 0.000000
						}
					}
					JOINT RFootTongue
					{
						OFFSET -1.142200 -1.059800 6.665200
						CHANNELS 3 Xrotation Yrotation Zrotation
						End Site
						{
							OFFSET 0.000000 12.319243 0.000000
						}
					}
				}
				JOINT RightPantLeg
				{
					OFFSET -0.919482 -16.533978 -2.284800
					CHANNELS 3 Xrotation Yrotation Zrotation
					End Site
					{
						OFFSET -0.350400 24.744419 0.000000
					}
				}
			}
		}
	}
	JOINT Spine
	{
		OFFSET 0.000000 7.722000 1.166200
		CHANNELS 3 Xrotation Yrotation Zrotation
		JOINT Spine1
		{
			OFFSET 0.000000 12.024101 0.248800
			CHANNELS 3 Xrotation Yrotation Zrotation
			JOINT Spine2
			{
				OFFSET 0.000000 11.502998 -0.491200
				CHANNELS 3 Xrotation Yrotation Zrotation
				JOINT Neck
				{
					OFFSET 0.000000 18.430702 -3.123100
					CHANNELS 3 Xrotation Yrotation Zrotation
					JOINT Head
					{
						OFFSET 0.000000 9.051102 1.034000
						CHANNELS 3 Xrotation Yrotation Zrotation
						JOINT HairB
						{
							OFFSET 0.208400 24.786102 24.822300
							CHANNELS 3 Xrotation Yrotation Zrotation
							End Site
							{
								OFFSET 0.000000 32.263779 0.000000
							}
						}
						JOINT HairA
						{
							OFFSET -7.081100 24.428299 23.196600
							CHANNELS 3 Xrotation Yrotation Zrotation
							End Site
							{
								OFFSET 0.000000 32.263779 0.000000
							}
						}
						JOINT Hat
						{
							OFFSET 16.728800 15.048294 -15.439601
							CHANNELS 3 Xrotation Yrotation Zrotation
							End Site
							{
								OFFSET 0.000000 32.263779 0.000000
							}
						}
					}
				}
				JOINT LeftShoulder
				{
					OFFSET 6.197800 13.665199 -4.064700
					CHANNELS 3 Xrotation Yrotation Zrotation
					JOINT LeftArm
					{
						OFFSET 7.778100 -0.187103 -1.709300
						CHANNELS 3 Xrotation Yrotation Zrotation
						JOINT LeftForeArm
						{
							OFFSET 22.049376 0.000000 0.000000
							CHANNELS 3 Xrotation Yrotation Zrotation
							JOINT LeftHand
							{
								OFFSET 23.009392 0.000000 0.000000
								CHANNELS 3 Xrotation Yrotation Zrotation
								JOINT LeftHandThumb1
								{
									OFFSET 3.507191 -2.063065 3.133727
									CHANNELS 3 Xrotation Yrotation Zrotation
									JOINT LeftHandThumb2
									{
										OFFSET 3.101337 -1.790558 1.790558
										CHANNELS 3 Xrotation Yrotation Zrotation
										JOINT LeftHandThumb3
										{
											OFFSET 3.058640 -1.765907 1.765906
											CHANNELS 3 Xrotation Yrotation Zrotation
											End Site
											{
												OFFSET -0.415260 3.926476 -0.049563
											}
										}
									}
								}
								JOINT LeftHandIndex1
								{
									OFFSET 11.334419 -0.901459 3.706815
									CHANNELS 3 Xrotation Yrotation Zrotation
									JOINT LeftHandIndex2
									{
										OFFSET 3.283112 0.000000 0.000000
										CHANNELS 3 Xrotation Yrotation Zrotation
										JOINT LeftHandIndex3
										{
											OFFSET 3.323853 0.000000 0.000000
											CHANNELS 3 Xrotation Yrotation Zrotation
											End Site
											{
												OFFSET -1.135597 3.097809 0.402452
											}
										}
									}
								}
								JOINT LeftHandMiddle1
								{
									OFFSET 11.335861 0.000000 0.000000
									CHANNELS 3 Xrotation Yrotation Zrotation
									JOINT LeftHandMiddle2
									{
										OFFSET 3.410492 0.000000 0.000000
										CHANNELS 3 Xrotation Yrotation Zrotation
										JOINT LeftHandMiddle3
										{
											OFFSET 3.312172 0.000000 0.000000
											CHANNELS 3 Xrotation Yrotation Zrotation
											End Site
											{
												OFFSET -1.150200 3.080154 0.400270
											}
										}
									}
								}
								JOINT LeftHandRing1
								{
									OFFSET 11.514786 -0.013176 -3.003090
									CHANNELS 3 Xrotation Yrotation Zrotation
									JOINT LeftHandRing2
									{
										OFFSET 3.053307 0.000000 0.000000
										CHANNELS 3 Xrotation Yrotation Zrotation
										JOINT LeftHandRing3
										{
											OFFSET 3.295807 0.000000 0.000000
											CHANNELS 3 Xrotation Yrotation Zrotation
											End Site
											{
												OFFSET -1.281006 3.013344 0.375733
											}
										}
									}
								}
								JOINT LeftHandPinky1
								{
									OFFSET 10.518692 -0.960396 -5.730441
									CHANNELS 3 Xrotation Yrotation Zrotation
									JOINT LeftHandPinky2
									{
										OFFSET 2.861649 0.000000 0.000000
										CHANNELS 3 Xrotation Yrotation Zrotation
										JOINT LeftHandPinky3
										{
											OFFSET 2.863380 0.000000 0.000000
											CHANNELS 3 Xrotation Yrotation Zrotation
											End Site
											{
												OFFSET -0.843597 2.711159 0.369971
											}
										}
									}
								}
							}
							JOINT LSleeve
							{
								OFFSET 6.676277 -0.344902 -1.011730
								CHANNELS 3 Xrotation Yrotation Zrotation
								End Site
								{
									OFFSET 0.000000 14.885353 0.000000
								}
							}
						}
					}
				}
				JOINT RightShoulder
				{
					OFFSET -6.197800 13.665199 -4.064700
					CHANNELS 3 Xrotation Yrotation Zrotation
					JOINT RightArm
					{
						OFFSET -7.778100 -0.187103 -1.709300
						CHANNELS 3 Xrotation Yrotation Zrotation
						JOINT RightForeArm
						{
							OFFSET -22.049376 0.000000 0.000000
							CHANNELS 3 Xrotation Yrotation Zrotation
							JOINT RightHand
							{
								OFFSET -23.009392 0.000000 0.000000
								CHANNELS 3 Xrotation Yrotation Zrotation
								JOINT RightHandThumb1
								{
									OFFSET -3.507191 -2.063065 3.133727
									CHANNELS 3 Xrotation Yrotation Zrotation
									JOINT RightHandThumb2
									{
										OFFSET -3.101337 -1.790558 1.790558
										CHANNELS 3 Xrotation Yrotation Zrotation
										JOINT RightHandThumb3
										{
											OFFSET -3.058640 -1.765907 1.765906
											CHANNELS 3 Xrotation Yrotation Zrotation
											End Site
											{
												OFFSET 0.415260 3.926476 -0.049563
											}
										}
									}
								}
								JOINT RightHandIndex1
								{
									OFFSET -11.334419 -0.901459 3.706815
									CHANNELS 3 Xrotation Yrotation Zrotation
									JOINT RightHandIndex2
									{
										OFFSET -3.283112 0.000000 0.000000
										CHANNELS 3 Xrotation Yrotation Zrotation
										JOINT RightHandIndex3
										{
											OFFSET -3.323853 0.000000 0.000000
											CHANNELS 3 Xrotation Yrotation Zrotation
											End Site
											{
												OFFSET 1.135597 3.097809 0.402452
											}
										}
									}
								}
								JOINT RightHandMiddle1
								{
									OFFSET -11.335861 0.000000 0.000000
									CHANNELS 3 Xrotation Yrotation Zrotation
									JOINT RightHandMiddle2
									{
										OFFSET -3.410492 0.000000 0.000000
										CHANNELS 3 Xrotation Yrotation Zrotation
										JOINT RightHandMiddle3
										{
											OFFSET -3.312172 0.000000 0.000000
											CHANNELS 3 Xrotation Yrotation Zrotation
											End Site
											{
												OFFSET 1.150200 3.080154 0.400270
											}
										}
									}
								}
								JOINT RightHandRing1
								{
									OFFSET -11.514786 -0.013176 -3.003090
									CHANNELS 3 Xrotation Yrotation Zrotation
									JOINT RightHandRing2
									{
										OFFSET -3.053307 0.000000 0.000000
										CHANNELS 3 Xrotation Yrotation Zrotation
										JOINT RightHandRing3
										{
											OFFSET -3.295807 0.000000 0.000000
											CHANNELS 3 Xrotation Yrotation Zrotation
											End Site
											{
												OFFSET 1.281006 3.013344 0.375733
											}
										}
									}
								}
								JOINT RightHandPinky1
								{
									OFFSET -10.518692 -0.960396 -5.730441
									CHANNELS 3 Xrotation Yrotation Zrotation
									JOINT RightHandPinky2
									{
										OFFSET -2.861649 0.000000 0.000000
										CHANNELS 3 Xrotation Yrotation Zrotation
										JOINT RightHandPinky3
										{
											OFFSET -2.863380 0.000000 0.000000
											CHANNELS 3 Xrotation Yrotation Zrotation
											End Site
											{
												OFFSET 0.843597 2.711159 0.369971
											}
										}
									}
								}
							}
							JOINT RSleeve
							{
								OFFSET -6.676277 -0.344902 -1.011730
								CHANNELS 3 Xrotation Yrotation Zrotation
								End Site
								{
									OFFSET 0.000000 14.885353 0.000000
								}
							}
						}
					}
				}
				JOINT Backpack
				{
					OFFSET 0.000000 -2.471497 36.677502
					CHANNELS 3 Xrotation Yrotation Zrotation
					End Site
					{
						OFFSET 0.000000 20.427315 0.000000
					}
				}
				JOINT Hood
				{
					OFFSET 0.000000 18.754097 -10.431000
					CHANNELS 3 Xrotation Yrotation Zrotation
					JOINT Hood1
					{
						OFFSET 0.000000 -5.011002 -7.685901
						CHANNELS 3 Xrotation Yrotation Zrotation
						End Site
						{
							OFFSET 0.000000 9.175140 0.000000
						}
					}
				}
				JOINT LHoodieString
				{
					OFFSET 5.250500 16.397697 3.089900
					CHANNELS 3 Xrotation Yrotation Zrotation
					JOINT LHoodieString1
					{
						OFFSET 0.257700 -6.364304 3.694600
						CHANNELS 3 Xrotation Yrotation Zrotation
						JOINT LHoodieString2
						{
							OFFSET 0.000000 -9.643799 2.679100
							CHANNELS 3 Xrotation Yrotation Zrotation
							End Site
							{
								OFFSET 0.000000 10.009018 0.000000
							}
						}
					}
				}
				JOINT RHoodieString
				{
					OFFSET -5.250500 16.397697 3.089900
					CHANNELS 3 Xrotation Yrotation Zrotation
					JOINT RHoodieString1
					{
						OFFSET -0.257700 -6.364304 3.694600
						CHANNELS 3 Xrotation Yrotation Zrotation
						JOINT RHoodieString2
						{
							OFFSET 0.000000 -9.643799 2.679100
							CHANNELS 3 Xrotation Yrotation Zrotation
							End Site
							{
								OFFSET 0.000000 10.009018 0.000000
							}
						}
					}
				}
			}
			JOINT LBackpack_Strap
			{
				OFFSET 15.223200 -7.719803 -6.610900
				CHANNELS 3 Xrotation Yrotation Zrotation
				End Site
				{
					OFFSET 0.000000 16.040596 0.000000
				}
			}
			JOINT RBackpack_Strap
			{
				OFFSET -15.223000 -7.719803 -6.610900
				CHANNELS 3 Xrotation Yrotation Zrotation
				End Site
				{
					OFFSET 0.000000 16.040596 0.000000
				}
			}
		}
	}
	JOINT BoyFacialAnim_Joint
	{
		OFFSET 1.000000 -82.208099 -1.550900
		CHANNELS 3 Xrotation Yrotation Zrotation
		End Site
		{
			OFFSET 0.000000 30.012791 0.000000
		}
	}
}
MOTION
Frames: 4
Frame Time: 0.033333
-2.150377 75.225891 0.939576 -2.717810 -13.884592 2.262281 -0.000000 -0.000000 -0.000000 -25.978787 2.671548 9.862137 53.907347 6.771659 -4.448098 -18.750194 3.758135 -3.871285 -0.000000 0.000000 -0.000000 -0.000000 0.000000 -0.000000 -0.000003 0.000000 -0.000001 -25.207945 -4.190529 -12.199384 57.467019 -3.298269 -0.188293 -23.024257 -1.321460 5.405982 -0.000000 0.000001 -0.000000 -0.000000 0.000001 -0.000000 -0.000001 -0.000000 0.000000 2.606338 0.190813 0.911471 5.208589 0.515583 -0.145069 5.209818 0.505293 -0.308495 2.724507 -0.857265 -1.269166 -4.773808 -3.639273 -6.825949 0.000001 -0.000000 -0.000000 0.000001 -0.000000 -0.000000 0.000001 -0.000000 -0.000000 2.507124 -2.239061 -7.354455 4.461605 1.965772 -71.752428 -0.000008 -61.584510 -0.000004 9.587356 -3.505471 12.960778 -1.540041 3.690175 6.142343 8.523939 36.610709 -5.454790 0.000000 -0.000002 -0.000001 1.914006 4.768107 -43.723558 2.194968 5.044492 -47.007681 -0.000003 -0.000001 -0.000004 1.912672 4.766702 -43.707487 2.196377 5.045794 -47.023786 -0.000005 -0.000003 -0.000002 2.108063 4.962349 -46.011341 2.360774 5.193522 -48.865922 -0.000002 0.000001 -0.000004 5.082997 7.793817 -46.156035 2.403773 1.142287 -49.472300 0.000002 -0.000001 -0.000002 0.000000 0.000001 0.000001 4.346584 9.113922 3.689891 -21.001022 -2.922080 54.797706 0.000028 116.685654 -0.000035 -38.187243 12.601206 23.552852 -1.849254 -3.581800 -6.586126 7.998684 -10.587464 8.091880 0.000000 -0.000003 -0.000002 -0.929781 1.442445 19.664779 0.693816 -3.032595 25.767462 -0.000000 -0.000001 0.000003 5.029309 -6.679252 73.930637 8.747839 -6.712240 105.046021 0.000000 0.000007 0.000003 5.029312 -6.679240 73.930651 8.747835 -6.712248 105.046014 -0.000001 0.000004 -0.000001 1.957471 -6.849613 18.729439 0.693792 -3.032603 25.767457 -0.000004 -0.000001 -0.000002 -0.000001 0.000001 -0.000000 0.000000 -0.000000 0.000000 0.000000 -0.000000 0.000000 0.000000 -0.000000 0.000000 0.000000 -0.000000 0.000000 0.000000 -0.000000 0.000000 -0.000000 -0.000001 -0.000000 0.000000 -0.000000 0.000000 0.000000 -0.000000 0.000000 -0.000000 -0.000001 -0.000000 0.000000 -0.000001 0.000001 0.000000 -0.000001 0.000001 -0.000000 -0.000000 -0.000000 
-1.924312 75.176636 0.426029 -2.257155 -13.424739 2.227011 -0.000000 -0.000000 -0.000000 -27.240487 2.722936 10.223059 54.126046 6.312948 -4.786273 -18.174392 3.862408 -3.755870 0.000000 0.000000 -0.000000 0.000000 0.000000 0.000000 -0.000002 0.000000 -0.000000 -26.112588 -3.988792 -12.149573 57.577907 -3.833848 0.071577 -22.671191 -1.342037 5.594698 -0.000000 -0.000000 0.000000 -0.000000 -0.000000 0.000000 -0.000000 0.000002 -0.000002 2.989354 0.273857 0.879057 5.947179 0.665068 0.086360 5.956009 0.644110 -0.098620 0.203240 -0.200354 0.051146 -9.631858 1.508467 -7.315452 0.000000 0.000000 -0.000000 0.000000 0.000000 -0.000000 0.000000 0.000000 -0.000000 2.589469 -2.492270 -7.097348 2.472077 0.615443 -71.758527 -0.000001 -59.433875 -0.000007 4.271547 -5.753264 9.869167 -1.540040 3.690172 6.142337 9.563130 36.573057 -6.213528 0.000001 0.000002 0.000003 2.093210 4.948053 -45.839326 2.413151 5.238607 -49.441916 0.000004 0.000004 -0.000003 2.091823 4.946697 -45.823230 2.414608 5.239855 -49.458052 -0.000002 0.000000 0.000002 2.269517 5.112690 -47.849812 2.550011 5.352238 -50.925020 0.000004 0.000001 0.000002 5.329831 7.846374 -47.970027 2.589879 1.295836 -51.475550 0.000000 0.000000 -0.000000 0.000002 -0.000001 0.000001 4.359424 9.158146 3.700227 -24.002072 -4.915547 54.869997 0.000003 121.046771 0.000007 -43.894392 11.044040 24.802732 -1.849253 -3.581793 -6.586125 8.295037 -11.037266 7.073244 -0.000000 0.000000 -0.000000 -0.947015 1.344271 20.373775 0.583064 -2.791879 23.587973 -0.000001 -0.000001 0.000003 5.091200 -6.696646 74.461971 8.499077 -6.773767 102.927734 0.000002 -0.000001 -0.000000 5.091193 -6.696633 74.461964 8.499077 -6.773775 102.927747 -0.000000 0.000001 0.000002 2.043489 -6.911320 19.447458 0.583055 -2.791887 23.587980 0.000001 -0.000003 -0.000000 -0.000002 -0.000000 0.000001 0.000000 -0.000000 0.000000 0.000000 -0.000000 0.000000 0.000000 -0.000000 0.000000 0.000000 -0.000000 0.000000 0.000000 -0.000000 -0.000000 0.000000 0.000000 -0.000000 0.000000 -0.000000 0.000000 0.000000 -0.000000 -0.000000 0.000000 0.000000 -0.000000 0.000000 0.000000 0.000000 0.000000 0.000000 0.000000 -0.000000 -0.000000 -0.000000 
-1.669024 74.995651 -0.382332 -1.599233 -12.904634 2.453716 -0.000000 -0.000001 -0.000000 -29.152347 2.597208 10.306140 54.628615 5.889509 -5.131103 -17.351293 4.130987 -3.714316 -0.000001 -0.000000 -0.000001 -0.000001 -0.000000 -0.000000 -0.000001 -0.000000 -0.000000 -27.882909 -3.849832 -12.566959 58.288117 -4.077681 0.464016 -22.224875 -1.340303 5.713883 0.000001 0.000001 -0.000000 0.000001 0.000001 -0.000000 0.000002 -0.000001 -0.000000 3.495838 0.313357 0.787124 6.911118 0.734061 0.225768 6.924259 0.697099 0.013069 -0.404817 0.468161 1.575635 -12.714293 6.965243 -7.695796 -0.000000 0.000000 0.000000 -0.000000 0.000000 0.000000 -0.000000 0.000000 0.000000 2.635405 -2.606944 -7.115793 0.015657 -0.849641 -70.989394 -0.000016 -58.245026 -0.000021 1.589087 -5.796233 7.163865 -1.540038 3.690171 6.142341 10.832716 36.751967 -6.389947 0.000001 -0.000001 0.000001 2.197198 5.046561 -47.033164 2.626428 5.413111 -51.739482 0.000002 -0.000000 -0.000004 2.195773 5.045243 -47.017055 2.627961 5.414305 -51.755629 0.000000 -0.000001 0.000004 2.361225 5.193926 -48.871035 2.735624 5.497080 -52.887931 0.000002 -0.000001 -0.000002 5.467650 7.872217 -48.977948 2.772113 1.435940 -53.384263 -0.000003 0.000000 -0.000000 0.000001 0.000004 -0.000002 4.407993 9.446749 4.485003 -26.018509 -5.600346 54.388632 0.000021 123.435343 -0.000025 -48.641076 10.068422 25.758564 -1.849251 -3.581797 -6.586125 8.580160 -11.509565 6.038438 0.000001 0.000001 -0.000003 -0.964643 1.235621 21.156537 0.532532 -2.673281 22.527863 -0.000002 -0.000001 0.000003 5.159689 -6.715191 75.048630 8.377251 -6.800401 101.896915 0.000002 0.000002 -0.000002 5.159692 -6.715179 75.048643 8.377253 -6.800411 101.896908 0.000001 -0.000004 0.000001 2.139380 -6.978210 20.240533 0.532508 -2.673288 22.527859 -0.000001 0.000001 -0.000001 -0.000000 0.000000 0.000000 0.000002 0.000000 -0.000000 0.000002 0.000000 -0.000000 0.000002 0.000000 -0.000000 0.000002 0.000000 -0.000000 0.000002 0.000000 0.000000 0.000000 0.000001 -0.000000 0.000002 0.000000 -0.000000 0.000002 0.000000 0.000000 0.000000 0.000001 -0.000000 0.000000 -0.000001 -0.000000 0.000000 -0.000001 -0.000000 -0.000000 -0.000001 -0.000000 
-1.363766 74.640976 -1.310274 -1.062910 -12.432856 3.097559 0.000000 -0.000001 0.000000 -31.163288 2.462259 9.941666 55.428464 5.435726 -5.605035 -16.488432 4.600504 -3.766831 0.000000 -0.000000 -0.000000 0.000000 -0.000000 -0.000000 -0.000000 0.000000 -0.000000 -30.127377 -3.984296 -13.980999 59.631055 -3.482700 1.012548 -22.067166 -1.307797 5.583778 0.000001 -0.000001 -0.000000 0.000001 -0.000001 -0.000000 -0.000000 -0.000001 -0.000000 4.143970 0.378570 0.694246 8.148865 0.861887 0.264930 8.163870 0.803807 0.017586 1.432789 1.169589 2.206917 -12.924159 11.374723 -7.726620 0.000000 0.000000 -0.000000 0.000000 0.000000 -0.000000 0.000000 0.000000 -0.000000 2.651776 -2.591625 -7.590798 -2.933722 -2.394037 -69.687402 -0.000000 -58.508534 0.000001 1.865800 -4.014951 4.747290 -1.540044 3.690177 6.142340 12.073810 37.164142 -5.893943 -0.000002 -0.000000 0.000002 2.185460 5.035659 -46.899617 2.789441 5.537184 -53.447740 -0.000002 0.000001 -0.000002 2.184045 5.034346 -46.883515 2.791008 5.538320 -53.463856 0.000000 -0.000003 0.000003 2.358835 5.191836 -48.844612 2.893383 5.612383 -54.517545 0.000001 0.000004 -0.000003 5.463514 7.871470 -48.947755 2.926289 1.547204 -54.963543 0.000000 0.000000 -0.000000 0.000002 -0.000002 -0.000000 4.446036 9.864263 6.189301 -27.274327 -5.597273 52.774321 -0.000001 121.074952 -0.000001 -48.844062 10.151720 27.450955 -1.849252 -3.581791 -6.586127 8.958747 -11.985637 5.143730 0.000002 0.000002 -0.000002 -0.958152 1.276639 20.861187 0.598123 -2.826078 23.895349 -0.000004 0.000004 0.000001 5.133816 -6.708282 74.827263 8.534282 -6.765636 103.226561 -0.000001 0.000002 -0.000002 5.133817 -6.708262 74.827256 8.534289 -6.765649 103.226527 0.000001 0.000002 0.000001 2.103077 -6.953133 19.941265 0.598126 -2.826086 23.895330 -0.000000 -0.000001 0.000003 0.000001 -0.000001 0.000002 0.000002 0.000000 0.000001 0.000002 0.000000 0.000001 0.000002 0.000000 0.000001 0.000002 0.000000 0.000001 0.000002 0.000000 0.000001 0.000000 -0.000001 0.000001 0.000002 0.000000 0.000001 0.000002 0.000000 0.000001 0.000000 -0.000001 0.000001 0.000000 0.000000 0.000000 0.000000 0.000000 0.000000 0.000000 -0.000001 0.000000 
